<?xml version="1.0" standalone="no"?>
<!DOCTYPE svg PUBLIC "-//W3C//DTD SVG 20010904//EN"
 "http://www.w3.org/TR/2001/REC-SVG-20010904/DTD/svg10.dtd">
<svg version="1.0" xmlns="http://www.w3.org/2000/svg"
 width="800.000000pt" height="800.000000pt" viewBox="0 0 800.000000 800.000000"
 preserveAspectRatio="xMidYMid meet">
<metadata>
Created by potrace 1.14, written by Peter Selinger 2001-2017
</metadata>
<g transform="translate(0.000000,800.000000) scale(0.100000,-0.100000)"
fill="#000000" stroke="none">
<path d="M3955 6365 c-22 -8 -48 -15 -57 -15 -55 0 -355 -138 -543 -249 -47
-28 -89 -51 -94 -51 -10 0 -172 -112 -236 -164 -141 -114 -239 -218 -327 -351
-33 -49 -65 -89 -71 -87 -6 2 -24 13 -41 25 -24 17 -45 22 -91 22 -65 -1 -101
-18 -130 -62 -21 -32 -39 -202 -32 -305 3 -43 2 -78 -2 -78 -5 0 -34 9 -67 21
-108 37 -127 41 -171 34 -66 -10 -104 -53 -127 -146 -66 -264 -79 -382 -51
-494 40 -165 56 -205 105 -271 28 -36 50 -68 50 -71 0 -3 -35 -3 -78 0 -102 6
-127 1 -166 -37 -72 -72 -86 -291 -33 -497 29 -111 56 -169 122 -259 27 -35
44 -66 39 -67 -67 -25 -242 -124 -259 -146 -26 -36 -28 -140 -4 -177 9 -14 24
-51 33 -83 16 -55 27 -69 199 -241 173 -173 190 -187 327 -272 162 -98 269
-148 410 -189 199 -58 256 -83 284 -125 24 -36 128 -100 163 -100 8 0 55 -16
106 -36 51 -19 135 -46 187 -58 52 -13 114 -34 137 -46 46 -23 55 -23 213 -2
220 31 245 32 404 13 85 -10 159 -22 165 -26 26 -15 103 -6 149 18 26 13 83
32 127 42 44 10 112 30 150 46 39 16 102 38 140 50 93 28 142 56 166 96 27 44
47 53 235 111 202 63 293 101 397 166 46 29 90 55 98 58 55 23 213 159 341
295 140 147 168 187 168 239 0 6 7 17 15 24 22 18 37 86 30 131 -11 63 -47 96
-177 158 l-117 56 45 60 c93 123 147 274 160 450 10 135 -16 264 -61 310 -40
39 -65 45 -177 39 -49 -3 -88 -2 -88 1 0 4 15 25 34 46 48 57 91 142 115 229
46 164 16 454 -61 608 -47 93 -120 120 -223 82 -33 -12 -72 -25 -86 -30 l-25
-8 8 57 c4 31 5 77 2 102 -3 26 -7 78 -8 117 -3 76 -22 114 -73 148 -44 29
-127 25 -185 -9 l-47 -27 -26 47 c-42 78 -84 133 -180 232 -139 144 -304 271
-470 361 -44 24 -96 52 -115 63 -19 11 -98 51 -175 89 -77 38 -148 73 -157 78
-9 5 -36 13 -60 16 -24 4 -57 15 -74 25 -44 26 -111 32 -159 14z m148 -192
c45 -32 149 -114 231 -183 362 -303 603 -592 661 -794 30 -102 9 -187 -78
-316 -32 -48 -224 -240 -240 -240 -5 0 -43 15 -85 33 -43 18 -118 46 -169 62
-77 24 -94 33 -102 54 -5 14 -44 123 -86 241 -157 441 -173 480 -201 491 -31
11 -66 -3 -81 -32 -7 -13 -37 -94 -68 -179 -31 -85 -75 -204 -97 -265 -23 -60
-53 -148 -68 -195 -20 -61 -33 -86 -46 -89 -42 -8 -261 -84 -286 -99 -37 -22
-60 -9 -152 88 -219 229 -251 352 -147 559 67 131 165 253 358 443 167 165
193 188 328 297 103 84 233 181 243 181 1 0 40 -26 85 -57z m-273 -21 c-121
-95 -333 -283 -436 -386 -364 -366 -474 -619 -360 -830 44 -81 134 -191 219
-267 l50 -45 -30 -13 c-35 -14 -27 -17 -358 109 -104 39 -208 78 -230 85 -124
43 -118 39 -143 100 -13 32 -30 88 -38 124 -17 81 -19 311 -3 311 6 0 43 -24
83 -53 73 -54 122 -87 130 -87 2 0 7 15 11 33 21 97 105 242 207 355 96 105
311 283 393 324 17 8 87 47 157 86 107 61 212 113 338 169 43 20 46 14 10 -15z
m468 -34 c80 -38 152 -76 352 -187 99 -55 286 -198 375 -286 139 -138 239
-295 260 -409 4 -20 11 -36 16 -36 5 0 55 34 112 75 l102 74 8 -62 c15 -115
-4 -261 -49 -383 -15 -39 -21 -44 -87 -68 -182 -69 -267 -101 -322 -121 -33
-12 -115 -43 -182 -68 -102 -39 -153 -49 -153 -32 0 2 32 34 71 72 105 101
175 191 214 276 62 134 46 244 -63 432 -24 42 -89 131 -131 180 -81 93 -385
388 -499 483 -67 56 -120 102 -117 102 3 0 45 -19 93 -42z m-263 -655 c4 -10
36 -98 72 -196 56 -154 64 -184 58 -220 -14 -79 -71 -127 -154 -127 -119 0
-183 87 -148 203 12 40 86 251 122 345 7 18 42 15 50 -5z m-176 -526 c14 -16
39 -36 56 -44 36 -19 151 -21 185 -3 35 17 90 71 90 87 0 28 20 11 31 -26 15
-49 5 -114 -24 -166 -55 -98 -221 -124 -327 -53 -63 43 -93 140 -70 224 11 39
15 43 23 27 5 -10 21 -31 36 -46z m-37 -224 c43 -41 105 -63 182 -63 113 0
188 39 236 122 l27 49 13 -45 c17 -61 6 -129 -32 -192 -65 -108 -219 -154
-350 -104 -93 36 -136 89 -162 200 -13 54 -13 64 2 99 l17 39 17 -36 c9 -21
31 -51 50 -69z m-73 -178 c21 -28 59 -61 91 -79 48 -27 66 -31 150 -34 78 -3
105 0 150 17 76 28 123 71 159 141 l29 60 12 -34 c22 -68 -23 -217 -83 -273
-108 -102 -294 -123 -433 -50 -101 53 -175 219 -144 320 l13 42 10 -31 c5 -17
26 -53 46 -79z m-959 -25 c424 -50 708 -144 856 -282 89 -84 109 -133 107
-268 -1 -131 -20 -196 -54 -192 -37 4 -256 114 -341 171 -82 55 -130 103 -156
157 -14 31 -14 37 0 67 10 21 31 41 53 51 35 17 40 17 80 2 23 -9 61 -33 84
-52 34 -30 44 -34 56 -24 23 19 18 35 -24 73 -102 92 -201 98 -274 18 -84 -93
-47 -198 110 -314 38 -29 79 -57 89 -63 15 -9 9 -10 -28 -3 -122 22 -290 64
-362 90 -108 39 -156 69 -214 135 -96 107 -142 226 -142 366 l0 78 38 0 c21 0
76 -5 122 -10z m2618 -98 c-3 -105 -5 -112 -46 -195 -47 -95 -122 -185 -187
-223 -70 -40 -191 -80 -360 -118 -88 -19 -161 -34 -162 -32 -2 2 23 19 55 39
75 47 160 130 183 181 32 71 24 112 -34 173 -71 75 -168 66 -268 -24 -42 -38
-47 -54 -24 -73 12 -10 22 -6 56 24 23 19 61 43 84 52 40 15 45 15 79 -1 44
-21 70 -65 61 -105 -16 -73 -163 -187 -366 -284 -163 -77 -154 -77 -176 -14
-13 38 -18 81 -17 153 0 89 3 107 28 157 66 135 206 222 485 303 164 47 427
91 560 94 l53 1 -4 -108z m-2978 -464 c-44 -66 -98 -195 -114 -272 -20 -97
-20 -143 -1 -243 8 -43 15 -81 15 -84 0 -3 -26 -20 -57 -37 -54 -28 -60 -29
-90 -17 -45 19 -164 141 -196 202 -39 73 -67 191 -74 313 l-6 105 59 -54 c86
-79 200 -161 223 -161 33 0 24 25 -19 54 -51 33 -79 56 -153 126 -96 90 -99
87 71 83 81 -2 183 0 227 5 44 5 93 10 108 11 l29 1 -22 -32z m3464 19 l179 2
-64 -65 c-35 -36 -95 -89 -134 -117 -38 -28 -73 -56 -77 -61 -9 -13 0 -26 18
-26 21 0 126 76 206 149 36 34 69 61 74 61 13 0 -5 -193 -25 -272 -36 -140
-113 -254 -217 -323 l-58 -38 -63 33 c-49 25 -63 37 -58 49 35 89 39 233 10
346 -17 67 -63 172 -107 243 l-20 33 78 -8 c44 -4 160 -7 258 -6z m-2951 -92
c89 -37 307 -91 467 -115 41 -6 81 -13 88 -16 20 -6 -24 -79 -79 -128 -119
-107 -326 -107 -433 0 -49 49 -86 140 -86 212 0 34 2 62 4 62 2 0 20 -7 39
-15z m2173 -67 c-19 -161 -123 -264 -279 -273 -117 -7 -235 50 -297 143 -28
42 -29 46 -12 57 9 7 55 18 102 25 121 18 280 54 385 88 50 16 94 27 99 24 4
-2 5 -32 2 -64z m-1268 -437 c109 -38 166 -43 242 -23 88 22 282 109 393 174
26 15 49 28 51 28 9 0 26 -66 26 -97 0 -19 -9 -51 -20 -73 -28 -55 -121 -142
-190 -179 -80 -43 -120 -41 -134 6 -15 46 55 123 111 123 35 0 53 11 53 31 0
28 -26 34 -79 20 -93 -25 -148 -95 -138 -174 3 -21 13 -47 22 -57 16 -18 15
-19 -34 -34 -88 -26 -159 -29 -246 -11 -44 9 -83 19 -88 22 -4 2 2 16 13 30
49 63 11 161 -82 207 -59 30 -100 33 -119 10 -11 -14 -10 -18 6 -30 10 -8 30
-14 43 -14 56 0 112 -50 112 -100 0 -69 -40 -77 -133 -28 -157 84 -238 216
-197 322 l10 26 142 -74 c79 -40 185 -88 236 -105z m-1460 -134 c31 -55 89
-124 180 -214 l52 -52 -10 -43 c-13 -58 -13 -175 1 -240 27 -123 110 -239 207
-286 50 -24 69 -27 152 -27 81 0 103 4 151 26 31 15 72 43 92 63 l36 36 753 0
752 0 36 -34 c19 -19 60 -47 90 -63 49 -25 65 -28 155 -28 120 0 167 19 245
98 61 64 94 130 116 238 14 71 15 94 4 171 l-12 89 95 99 c53 55 111 126 129
160 18 33 35 60 38 60 3 0 73 -35 155 -78 83 -42 203 -102 268 -131 l117 -55
-37 -38 c-100 -103 -398 -236 -613 -275 -45 -9 -67 -37 -40 -53 14 -8 166 21
247 49 113 37 262 107 330 153 24 16 43 26 43 22 0 -3 -50 -59 -112 -123 -283
-295 -528 -418 -899 -450 -57 -5 -137 -6 -176 -4 -59 5 -74 3 -79 -10 -3 -8
12 -53 34 -99 l40 -83 -38 -17 c-63 -29 -161 -51 -230 -51 -75 0 -131 13 -214
49 -52 23 -60 24 -73 11 -13 -13 -14 -25 -4 -79 20 -116 24 -111 -75 -78 -48
17 -134 53 -191 81 l-104 52 -112 -55 c-116 -58 -252 -107 -263 -95 -4 4 -1
41 6 83 10 66 10 79 -3 91 -13 13 -22 12 -73 -11 -85 -36 -140 -49 -219 -49
-74 0 -177 23 -232 51 l-32 17 41 81 c22 45 38 88 35 97 -4 12 -30 15 -144 15
-329 1 -586 88 -823 277 -76 61 -305 293 -297 301 3 3 26 -8 51 -25 24 -17 48
-31 51 -31 4 0 19 -8 33 -18 75 -52 347 -143 456 -154 27 -3 58 23 44 37 -3 4
-53 17 -110 30 -219 51 -460 167 -557 269 l-34 35 104 48 c117 53 389 191 404
204 19 18 34 8 63 -44z m606 -143 c51 -56 106 -119 123 -141 l32 -39 -27 -30
c-125 -136 -152 -168 -152 -179 0 -44 125 -123 213 -134 l49 -6 -41 -46 c-117
-134 -332 -132 -446 3 -74 87 -111 239 -90 363 7 41 19 91 25 112 19 58 86
183 121 226 l32 38 35 -33 c19 -18 76 -78 126 -134z m2223 108 c124 -171 169
-358 123 -512 -29 -96 -49 -136 -95 -183 -63 -65 -107 -82 -210 -82 -81 0 -95
3 -144 30 -48 26 -111 87 -111 107 0 5 17 8 38 8 66 0 222 91 222 129 0 11
-119 150 -159 185 -11 11 -21 24 -21 29 0 16 295 347 309 347 3 0 25 -27 48
-58z m-1862 -367 c33 -20 84 -43 113 -51 28 -9 52 -20 52 -25 0 -17 -134 -109
-190 -130 -100 -38 -229 -16 -298 50 l-23 22 43 48 c24 26 72 79 108 119 l65
71 35 -34 c19 -18 62 -50 95 -70z m1534 -15 c55 -61 101 -115 101 -120 0 -15
-87 -68 -130 -80 -19 -5 -60 -10 -91 -10 -69 0 -173 48 -245 114 l-48 43 49
12 c63 16 155 65 208 113 23 20 45 38 48 38 4 0 52 -50 108 -110z m-913 -257
c-7 -18 -326 -19 -326 0 1 6 9 50 18 97 19 96 1 82 142 110 30 6 80 21 110 33
l55 22 3 -124 c1 -69 0 -131 -2 -138z m168 220 c28 -9 74 -18 101 -22 l50 -6
18 -88 c11 -48 16 -95 13 -103 -5 -12 -30 -14 -148 -12 l-143 3 -3 138 -3 138
32 -17 c17 -8 55 -23 83 -31z m-520 -32 c11 -17 -24 -176 -41 -188 -18 -14
-96 -15 -233 -4 -70 6 -80 8 -55 15 68 19 160 73 218 128 58 53 98 71 111 49z
m822 -6 c8 -20 119 -107 169 -133 22 -11 59 -25 83 -32 23 -7 41 -15 39 -16
-2 -2 -78 -6 -169 -10 -156 -6 -166 -6 -176 12 -9 19 -32 135 -32 167 0 26 77
37 86 12z"/>
</g>
</svg>
